# xmcd
#
# Track frame offsets:
#	150
#	17286
#	30573
#	45894
#	59439
#	72977
#	87140
#	107771
#	123829
#	136345
#	147662
#	160707
#	179624
#	193920
#	202443
#
# Disc length: 2871 seconds
#
# Revision: 0
# Processed by: cddbd v1.5.2PL0 Copyright (c) Steve Scherf et al.
# Submitted via: EasyCDDAExtractor 12.0.0.1
#
DISCID=d50b350f
DTITLE=Alicja Boncol and Koalicja - Ale Ala
DYEAR=1900
DGENRE=
TTITLE0=Nie chce byc aniolem
TTITLE1=I wanna be a cowboy's sweetheart
TTITLE2=Zabieraj te lapy z mojego tylka
TTITLE3=Hurricane
TTITLE4=Wszystko Ci wybaczam
TTITLE5=Two more bottles of wine
TTITLE6=Daddy can you see me
TTITLE7=To byl twoj blad
TTITLE8=Dlaczego panie pija do dna
TTITLE9=Some days you gotta dance
TTITLE10=Lovesick blues
TTITLE11=Mam kilometrow paranoje
TTITLE12=1-800 use to be
TTITLE13=Didin't leave nobody but the babe
TTITLE14=Lovesick blues
EXTD=
EXTT0=
EXTT1=
EXTT2=
EXTT3=
EXTT4=
EXTT5=
EXTT6=
EXTT7=
EXTT8=
EXTT9=
EXTT10=
EXTT11=
EXTT12=
EXTT13=
EXTT14=
PLAYORDER=
